<svg width="2034" height="2206" xmlns="http://www.w3.org/2000/svg" xmlns:xlink="http://www.w3.org/1999/xlink" xml:space="preserve" overflow="hidden"><g transform="translate(-998 -135)"><path d="M2406.11 135.021C2408.8 135.042 2411.49 135.062 2414.26 135.083 2450.98 135.698 2486.95 139.451 2521.31 153.073 2526.39 154.936 2531.48 156.799 2536.56 158.661 2548.81 163.389 2548.81 163.389 2555.69 166.828 2561.5 183.304 2559.77 201.394 2559.78 218.621 2559.82 222.08 2559.86 225.54 2559.9 229.104 2559.91 232.422 2559.92 235.74 2559.92 239.158 2559.94 242.186 2559.95 245.214 2559.97 248.333 2559.13 256.23 2559.13 256.23 2552.25 266.546 2551.07 274.563 2549.92 282.587 2548.81 290.616 2545.16 300.716 2545.16 300.716 2541.94 307.809 2539.67 307.809 2537.4 307.809 2535.06 307.809 2534.64 309.582 2534.21 311.354 2533.77 313.181 2532.71 317.331 2532.71 317.331 2531.62 321.563 2530.7 325.322 2529.78 329.08 2528.83 332.953 2524.49 346.431 2518.15 357.614 2510.99 369.703 2509.08 372.973 2509.08 372.973 2507.14 376.309 2503.22 383.007 2499.26 389.681 2495.3 396.352 2493.97 398.617 2492.65 400.882 2491.28 403.215 2484.88 413.959 2478.55 422.846 2469.73 431.597 2467.46 435.001 2465.19 438.405 2462.85 441.913 2460.58 441.913 2458.31 441.913 2455.97 441.913 2455.23 443.792 2454.48 445.672 2453.71 447.608 2446.43 460.313 2435.52 469.517 2424.98 479.51 2415.96 488.244 2409.58 495.84 2404.39 507.246 2394.24 511.503 2391.07 510.828 2380.32 507.246 2380.32 510.65 2380.32 514.054 2380.32 517.561 2365.26 526.01 2352.7 529.304 2335.62 531.315 2334.48 532.45 2333.35 533.585 2332.18 534.754 2336.6 536.377 2336.6 536.377 2341.11 538.031 2362.14 545.902 2381.92 553.752 2400.95 565.701 2400.95 567.97 2400.95 570.24 2400.95 572.578 2404.21 572.86 2407.48 573.146 2410.84 573.438 2458.89 580.617 2506.81 613.593 2546.67 639.63 2557.41 646.528 2567.65 652.817 2579.55 657.469 2590.53 662.173 2595.78 667.128 2603.83 675.735 2607.13 677.331 2607.13 677.331 2610.5 678.961 2618.3 682.977 2623.2 688.155 2629.23 694.434 2644.5 709.22 2661.16 723.463 2680.34 732.685 2691.43 738.479 2696.4 745.057 2704.08 754.702 2714.76 766.462 2727.48 775.718 2740.04 785.381 2747.78 792.227 2751.45 796.893 2755.14 806.401 2759.67 806.401 2764.21 806.401 2768.89 806.401 2775.34 815.21 2775.34 815.21 2778.78 820.894 2788.13 835.735 2798.84 848.238 2813.59 857.766 2825.37 865.86 2831.95 874.57 2840.08 886.158 2844.59 892.781 2844.59 892.781 2851.42 899.242 2851.42 902.646 2851.42 906.05 2851.42 909.558 2854.82 910.693 2858.23 911.827 2861.73 912.996 2867.68 919.681 2873.12 926.29 2878.5 933.414 2880.03 935.416 2881.56 937.417 2883.14 939.483 2893.92 953.922 2902.52 968.567 2909.76 985.127 2912.95 992.245 2912.95 992.245 2918.47 997.227 2924.74 1003.51 2927.32 1009.49 2930.72 1017.66 2937.36 1037.12 2937.36 1037.12 2951.14 1050.54 2952.54 1058.52 2953.7 1066.55 2954.58 1074.61 2956.85 1074.61 2959.12 1074.61 2961.46 1074.61 2964.69 1083.7 2967.91 1092.8 2971.13 1101.9 2972.08 1104.59 2973.03 1107.27 2974.01 1110.03 2978.78 1123.54 2983.47 1137.06 2987.89 1150.69 2990.77 1159.53 2993.96 1167.48 2997.78 1176.05 3004.92 1193.44 3008.3 1211.06 3011.32 1229.56 3012.96 1240.17 3012.96 1240.17 3016.48 1252.34 3020.23 1266.79 3021.45 1281.14 3022.51 1296.01 3023.15 1304.83 3023.15 1304.83 3025.04 1312.72 3027.6 1326.55 3028.08 1340.38 3028.72 1354.42 3028.87 1357.45 3029.01 1360.48 3029.15 1363.6 3032.44 1438.73 3032.44 1438.73 3023.35 1456.29 3021.4 1468.29 3020.09 1480.29 3018.74 1492.37 3016.39 1504.89 3012.08 1513.86 3006.16 1525.06 3005.66 1528.82 3005.17 1532.58 3004.65 1536.45 3002.19 1552.62 2995.95 1565.41 2988.97 1580.08 2986.59 1585.45 2984.22 1590.82 2981.88 1596.2 2974.59 1612.55 2966.82 1628.44 2957.8 1643.9 2951.16 1655.07 2951.16 1655.07 2947.49 1664.97 2944.02 1673.52 2940.07 1679.78 2933.95 1686.67 2931.68 1686.67 2929.41 1686.67 2927.07 1686.67 2927.07 1688.94 2927.07 1691.21 2927.07 1693.55 2924.8 1693.55 2922.53 1693.55 2920.19 1693.55 2919.91 1695.47 2919.62 1697.38 2919.33 1699.35 2915.98 1709.69 2909.85 1716.15 2903 1724.5 2901.86 1727.9 2900.73 1731.31 2899.56 1734.81 2894.18 1740.12 2894.18 1740.12 2887.31 1745.78 2868.83 1761.44 2852.02 1778.56 2835.3 1796.06 2827.25 1803.67 2819.81 1808.51 2810.15 1813.9 2805.2 1816.96 2800.26 1820.04 2795.33 1823.14 2792.93 1824.64 2790.53 1826.15 2788.06 1827.7 2786.27 1828.82 2784.48 1829.94 2782.65 1831.09 2792.99 1848.7 2803.6 1866.09 2814.75 1883.19 2846.45 1931.85 2873.48 1983.91 2896.12 2037.41 2897.54 2040.53 2898.96 2043.65 2900.42 2046.86 2903.32 2055.56 2903.52 2062.68 2903 2071.79 2905.27 2071.79 2907.54 2071.79 2909.88 2071.79 2930.7 2122.04 2930.7 2122.04 2930.3 2139.27 2929.84 2147.74 2929.84 2147.74 2935.02 2154.96 2947.51 2175.77 2951.38 2199.32 2954.58 2223.09 2955.63 2226.14 2956.68 2229.2 2957.76 2232.34 2962.01 2245.43 2964.64 2258.35 2967.04 2271.88 2967.74 2275.44 2967.74 2275.44 2968.44 2279.08 2972.23 2300.2 2971.77 2317.69 2971.77 2340 2359 2340 1746.23 2340 1114.89 2340 1116.95 2300.84 1118.97 2263.65 1124.99 2225.24 1125.86 2219.26 1125.86 2219.26 1126.75 2213.15 1129.37 2195.91 1132.16 2180.75 1138.96 2164.63 1140.31 2158.65 1141.53 2152.63 1142.61 2146.58 1145.47 2130.61 1145.47 2130.61 1149.27 2126.81 1149.91 2121.38 1149.91 2121.38 1150.56 2115.85 1152.75 2102.51 1156.73 2093.94 1163.03 2082.11 1164.04 2079.08 1165.05 2076.05 1166.09 2072.92 1170.58 2059.45 1175.86 2046.43 1181.3 2033.32 1182.36 2030.75 1183.42 2028.19 1184.52 2025.54 1195.92 1998.1 1207.97 1971.03 1221.49 1944.57 1224.43 1938.77 1227.37 1932.96 1230.3 1927.16 1231.72 1924.35 1233.14 1921.55 1234.61 1918.66 1238.79 1910.25 1238.79 1910.25 1242.01 1901.5 1245.73 1892.59 1250.21 1885.27 1255.66 1877.3 1257.39 1874.74 1259.13 1872.18 1260.91 1869.55 1264.4 1864.58 1268.02 1859.7 1271.75 1854.91 1277.87 1846.38 1280.43 1837.66 1283.38 1827.65 1281.56 1826.82 1279.73 1825.99 1277.85 1825.13 1263.46 1818.31 1252.94 1812.05 1242.12 1800.15 1229.99 1789.57 1218.08 1780.84 1204.29 1772.64 1197.78 1767.82 1191.37 1762.88 1184.96 1757.93 1176.6 1751.71 1176.6 1751.71 1166.56 1745.76 1142.18 1730.8 1126.21 1716.83 1114.89 1690.11 1114.89 1687.84 1114.89 1685.57 1114.89 1683.24 1111.48 1682.1 1108.08 1680.97 1104.57 1679.8 1099.8 1674.44 1099.8 1674.44 1095.33 1667.97 1093.83 1665.85 1092.33 1663.73 1090.78 1661.54 1087.38 1655.73 1087.38 1655.73 1087.38 1648.85 1083.97 1647.71 1080.57 1646.58 1077.06 1645.41 1072.24 1637.15 1068.03 1629.1 1063.95 1620.48 1062.75 1617.99 1061.54 1615.5 1060.3 1612.93 1057.85 1607.83 1055.41 1602.72 1052.99 1597.61 1049.98 1591.29 1046.88 1585.01 1043.78 1578.73 1010.5 1510.11 1001.16 1441.28 998.832 1365.81 998.753 1363.33 998.67 1360.85 998.588 1358.3 997.202 1312.6 998.846 1268.01 1008.08 1223.11 1008.95 1218.66 1008.95 1218.66 1009.84 1214.12 1011.56 1205.43 1013.35 1196.75 1015.17 1188.08 1016.05 1183.77 1016.05 1183.77 1016.96 1179.38 1017.54 1176.64 1018.13 1173.9 1018.72 1171.08 1019.24 1168.64 1019.75 1166.21 1020.29 1163.7 1022.9 1153.95 1027.78 1145.47 1032.36 1136.5 1033.91 1129.95 1035.46 1123.4 1036.95 1116.84 1040.69 1104.01 1046.52 1092.2 1052.24 1080.16 1059.9 1063.74 1065.39 1047.39 1070.18 1029.91 1072.45 1029.91 1074.72 1029.91 1077.06 1029.91 1077.59 1027.15 1077.59 1027.15 1078.12 1024.33 1086.88 994.219 1107.14 966.837 1125.82 942.117 1131.03 935.058 1135.47 928.112 1139.82 920.52 1160.49 886.557 1190.89 857.26 1217.71 828.146 1223.28 821.971 1228.46 815.778 1233.52 809.193 1244.01 797.399 1255.75 788.238 1268.25 778.651 1276.63 772.194 1276.63 772.194 1283.77 764.519 1290.26 758.261 1290.26 758.261 1301.01 754.822 1304.27 753.688 1307.53 752.553 1310.89 751.384 1311.83 749.362 1312.77 747.34 1313.74 745.26 1325.48 723.036 1357.69 706.338 1380.07 696.274 1390.45 690.913 1399.26 683.627 1408.33 676.326 1414.05 672.297 1414.05 672.297 1420.93 672.297 1420.93 668.892 1420.93 665.488 1420.93 661.981 1430.72 657.088 1440.5 652.198 1450.29 647.312 1458.17 643.364 1466.03 639.389 1473.88 635.387 1479.37 632.595 1479.37 632.595 1484.97 629.745 1488.35 628.015 1491.73 626.289 1495.21 624.507 1503.46 620.718 1503.46 620.718 1510.34 620.718 1510.34 618.449 1510.34 616.179 1510.34 613.841 1513.58 612.63 1516.82 611.42 1520.17 610.176 1546.31 600.197 1570.1 589.025 1594.08 574.418 1606.03 567.486 1617.59 563.191 1630.69 558.824 1635.43 557.132 1640.16 555.409 1644.87 553.666 1647.15 552.824 1649.43 551.981 1651.78 551.115 1659 548.323 1659 548.323 1668.51 542.921 1681.44 536.996 1692.21 535.971 1706.34 534.754 1706.34 532.485 1706.34 530.215 1706.34 527.877 1718.25 524.473 1718.25 524.473 1730.41 521 1727.38 519.958 1724.35 518.916 1721.24 517.843 1699.69 510.072 1683.82 504.233 1668.51 486.614 1665.11 484.912 1661.71 483.21 1658.2 481.456 1646.48 475.599 1639.67 468.553 1630.69 459.106 1627.85 457.12 1625.02 455.134 1622.09 453.088 1611.73 443.766 1606.76 434.08 1600.39 421.818 1596.33 413.878 1596.33 413.878 1589.21 406.023 1580.95 395.094 1576.84 383.893 1572.02 371.14 1568.73 362.288 1568.73 362.288 1563.42 352.08 1544.16 313.566 1536.95 273.59 1536.55 230.871 1536.51 228.011 1536.46 225.151 1536.41 222.204 1536.56 202.706 1540.39 188.153 1548.16 170.266 1550.43 170.266 1552.7 170.266 1555.04 170.266 1556.21 167.394 1556.21 167.394 1557.4 164.463 1563.43 153.837 1569.64 147.102 1579.11 139.319 1589.95 138.392 1589.95 138.392 1602.97 139.964 1636.74 143.329 1670.39 142.959 1704.28 142.626 1763.77 142.243 1763.77 142.243 1778.55 149.635 1778.55 151.904 1778.55 154.174 1778.55 156.512 1784.23 155.377 1789.9 154.242 1795.75 153.073 1796.88 155.343 1798.01 157.612 1799.18 159.95 1804.84 162.432 1810.57 164.742 1816.38 166.828 1816.38 169.097 1816.38 171.366 1816.38 173.705 1818.54 174.041 1820.7 174.378 1822.93 174.726 1843.69 178.351 1859.86 184.105 1878.27 194.336 1878.27 196.606 1878.27 198.875 1878.27 201.213 1880.76 201.567 1883.24 201.922 1885.8 202.288 1908.63 207.868 1923.95 223.307 1936.73 242.476 1941.29 244.827 1945.87 247.117 1950.49 249.353 1957.02 254.88 1960.47 258.94 1964.03 266.761 1968.54 274.99 1972.87 276.875 1981.43 280.3 1981.43 282.57 1981.43 284.839 1981.43 287.177 1983.7 287.177 1985.97 287.177 1988.31 287.177 1988.31 292.851 1988.31 298.524 1988.31 304.37 1990.58 304.37 1992.85 304.37 1995.19 304.37 2002.07 314.686 2002.07 314.686 2002.07 325.001 2005.47 325.001 2008.87 325.001 2012.38 325.001 2014.73 330.934 2017.08 336.866 2019.43 342.799 2023.04 349.723 2027.27 354.159 2033.01 359.387 2036.39 355.526 2039.75 351.656 2043.12 347.782 2045.93 344.551 2045.93 344.551 2048.8 341.254 2053.89 335.467 2053.89 335.467 2057.08 328.44 2059.17 327.456 2061.25 326.472 2063.4 325.458 2072.37 320.76 2076.93 315.208 2083.3 307.379 2087.03 302.813 2090.87 298.337 2094.91 294.055 2097.18 294.055 2099.45 294.055 2101.79 294.055 2102.92 290.65 2104.06 287.246 2105.23 283.738 2112.2 277.759 2119.14 272.223 2126.5 266.761 2129.42 264.543 2129.42 264.543 2132.39 262.281 2186.62 221.347 2245.78 185.798 2308.93 160.676 2318.61 156.699 2318.61 156.699 2327.64 150.776 2335.62 146.196 2335.62 146.196 2345.29 147.271 2349.01 148.441 2349.01 148.441 2352.81 149.635 2352.81 147.365 2352.81 145.096 2352.81 142.757 2371.07 136.704 2386.93 134.781 2406.11 135.021Z" fill="#A1FE50" fill-rule="evenodd"/></g></svg>