<svg width="953" height="363" xmlns="http://www.w3.org/2000/svg" xmlns:xlink="http://www.w3.org/1999/xlink" xml:space="preserve" overflow="hidden"><g transform="translate(-1569 -170)"><path d="M2503.97 188.03C2503.97 190.299 2503.97 192.568 2503.97 194.906 2510.77 196.607 2510.77 196.607 2517.71 198.343 2519.75 208.699 2521.35 218.708 2521.15 229.282 2514.49 238.09 2514.49 238.09 2507.4 243.032 2510.81 244.166 2514.21 245.301 2517.71 246.469 2516.84 248.592 2515.97 250.714 2515.07 252.901 2508.14 269.946 2501.82 287.005 2496.15 304.505 2492.47 315.236 2487.97 325.492 2483.35 335.847 2481.08 335.847 2478.81 335.847 2476.47 335.847 2476.12 338.753 2475.76 341.66 2475.4 344.656 2470 371.636 2456.21 393.899 2438.67 414.911 2436.4 414.911 2434.13 414.911 2431.79 414.911 2431.51 417.606 2431.23 420.3 2430.94 423.076 2430.08 426.053 2429.23 429.031 2428.36 432.099 2423.79 434.414 2419.2 436.703 2414.61 438.975 2408.89 444.845 2408.89 444.845 2403.87 451.436 2398.69 458.016 2398.69 458.016 2393.99 463.038 2391.72 463.038 2389.45 463.038 2387.12 463.038 2386.9 465.165 2386.69 467.292 2386.47 469.483 2383.68 476.788 2383.68 476.788 2375.73 480.655 2372.68 481.648 2369.64 482.641 2366.5 483.663 2358.87 486.612 2358.87 486.612 2352.75 490.538 2351.61 493.941 2350.48 497.345 2349.31 500.851 2328.57 507.641 2307.6 508.799 2285.95 510.09 2283.18 510.256 2280.41 510.423 2277.56 510.595 2257.39 511.599 2257.39 511.599 2249.65 507.726 2249.65 509.995 2249.65 512.264 2249.65 514.602 2247.38 514.602 2245.11 514.602 2242.77 514.602 2241.64 518.004 2240.5 521.408 2239.34 524.914 2237.36 523.753 2235.39 522.592 2233.36 521.396 2224.49 517.565 2220.62 517.827 2211.2 519.328 2194.61 521.445 2178.47 521.656 2161.79 521.477 2145.87 521.319 2130.36 521.34 2114.54 523.41 2102.89 524.793 2098.82 524.206 2088.12 521.477 2082.07 521.163 2076 521.027 2069.94 521.02 2066.42 521.015 2062.9 521.011 2059.27 521.007 2055.6 521.02 2051.94 521.033 2048.17 521.047 2044.58 521.033 2041 521.021 2037.31 521.007 2020.87 521.027 2004.73 521.369 1988.4 523.209 1968.79 525.416 1949.31 525.292 1929.6 525.129 1924.17 525.106 1924.17 525.106 1918.64 525.082 1909.84 525.042 1901.03 524.986 1892.22 524.914 1892.22 527.183 1892.22 529.452 1892.22 531.789 1878.48 531.789 1864.73 531.789 1850.98 531.789 1848.74 531.831 1846.51 531.868 1844.2 531.91 1824.25 532.171 1824.25 532.171 1816.61 528.352 1814.1 521.554 1811.82 514.668 1809.74 507.726 1808.61 504.323 1807.47 500.92 1806.3 497.413 1802.76 497.161 1802.76 497.161 1799.15 496.903 1794.5 496.518 1794.5 496.518 1789.77 496.125 1786.69 495.885 1783.62 495.646 1780.46 495.399 1771.94 493.976 1771.94 493.976 1761.63 487.101 1755.35 485.186 1755.35 485.186 1748.95 483.234 1730.25 477.274 1713.21 468.414 1695.81 459.451 1693.56 458.295 1691.31 457.139 1689 455.948 1686.8 454.81 1684.6 453.673 1682.33 452.502 1675.74 449.305 1669.09 446.675 1662.25 444.05 1658.76 442.375 1655.25 440.7 1651.65 438.975 1647.35 426.513 1647.35 426.513 1644.78 414.911 1639.67 413.21 1639.67 413.21 1634.47 411.474 1633.33 405.802 1632.2 400.13 1631.03 394.286 1628.76 394.286 1626.49 394.286 1624.15 394.286 1624.15 392.017 1624.15 389.748 1624.15 387.411 1620.75 387.411 1617.35 387.411 1613.84 387.411 1612.71 378.335 1611.58 369.26 1610.41 359.91 1607.01 358.775 1603.6 357.641 1600.1 356.472 1596.2 347.234 1596.2 347.234 1592.79 335.847 1589.71 322.798 1589.71 322.798 1582.91 311.784 1582.19 304.636 1581.65 297.469 1581.2 290.299 1580.02 269.889 1580.02 269.889 1576.04 249.907 1573.77 248.773 1571.5 247.638 1569.17 246.469 1572.57 246.469 1575.97 246.469 1579.48 246.469 1579.23 244.515 1578.98 242.561 1578.72 240.547 1576.16 219.216 1573.74 198.708 1579.48 177.718 1597.94 177.546 1616.39 177.422 1634.85 177.34 1641.12 177.306 1647.39 177.259 1653.65 177.199 1717.75 176.602 1717.75 176.602 1747.88 184.593 1747.88 186.861 1747.88 189.13 1747.88 191.468 1751.85 191.184 1755.82 190.901 1759.91 190.609 1774.7 190.504 1783.96 195.066 1796.64 202.224 1803.1 205.912 1803.1 205.912 1812.1 205.003 1820.05 205.218 1820.05 205.218 1829.29 213.812 1831.91 216.648 1834.53 219.484 1837.23 222.406 1839.5 222.406 1841.77 222.406 1844.11 222.406 1844.11 224.675 1844.11 226.944 1844.11 229.282 1849.78 225.878 1855.45 222.475 1861.29 218.969 1859.59 227.477 1859.59 227.477 1857.85 236.157 1861.04 236.582 1864.23 237.007 1867.52 237.446 1878.48 239.594 1878.48 239.594 1888.79 246.469 1889.43 255.493 1889.43 255.493 1888.79 263.657 1892.83 265.253 1892.83 265.253 1896.95 266.88 1905.97 270.532 1905.97 270.532 1912.84 273.97 1914.54 279.075 1914.54 279.075 1916.28 284.283 1918.55 285.417 1920.82 286.552 1923.15 287.72 1923.15 289.989 1923.15 292.258 1923.15 294.596 1927.69 293.461 1932.23 292.327 1936.9 291.158 1937.73 293.312 1938.57 295.465 1939.42 297.684 1941.15 301.898 1941.15 301.898 1942.91 306.198 1944.03 308.989 1945.15 311.781 1946.3 314.657 1951.39 323.361 1955.45 324.865 1964.39 328.972 1966.97 337.995 1966.97 337.995 1967.83 346.159 1973.5 347.294 1979.17 348.428 1985.02 349.597 1985.02 358.672 1985.02 367.748 1985.02 377.098 1992.95 374.829 2000.89 372.56 2009.07 370.223 2006.8 373.626 2004.54 377.029 2002.2 380.535 1999.93 380.535 1997.66 380.535 1995.33 380.535 1997.52 383.726 1999.72 386.917 2001.99 390.204 2009.07 401.161 2009.07 401.161 2012.51 411.474 2030.16 409.512 2039.31 395.949 2049.88 382.899 2052.29 379.85 2054.7 376.801 2057.19 373.66 2096.24 325.444 2146.93 284.063 2199.77 251.814 2208.06 246.681 2215.93 241.164 2223.87 235.512 2237.99 225.955 2252.43 220.692 2268.53 215.316 2279.45 211.227 2288.16 204.89 2297.76 198.343 2305.74 195.909 2313.75 193.598 2321.82 191.468 2325.22 189.199 2328.62 186.93 2332.13 184.593 2393 163.108 2443.77 166.288 2503.97 188.03Z" fill="#4F7E58" fill-rule="evenodd"/></g></svg>