<svg width="352" height="213" xmlns="http://www.w3.org/2000/svg" xmlns:xlink="http://www.w3.org/1999/xlink" xml:space="preserve" overflow="hidden"><g transform="translate(-1902 -1371)"><path d="M2089.02 1371.5C2092.9 1371.73 2092.9 1371.73 2096.86 1371.97 2115.8 1373.34 2132.43 1376.7 2149.89 1384.36 2153.37 1385.7 2156.84 1387.05 2160.43 1388.43 2163.73 1389.81 2163.73 1389.81 2167.09 1391.22 2167.09 1393.48 2167.09 1395.75 2167.09 1398.08 2177.24 1403.26 2187.53 1407.9 2198.01 1412.36 2202.84 1414.42 2202.84 1414.42 2207.76 1416.52 2211.09 1417.93 2214.42 1419.35 2217.85 1420.8 2221.24 1422.25 2224.62 1423.69 2228.11 1425.17 2236.45 1428.72 2244.78 1432.27 2253.12 1435.81 2251.99 1440.34 2250.85 1444.87 2249.68 1449.53 2238.18 1449.79 2229.71 1449.76 2218.71 1446.1 2219 1449.5 2219.29 1452.89 2219.59 1456.39 2224.37 1516.53 2224.37 1516.53 2211.83 1535.28 2209.56 1535.28 2207.29 1535.28 2204.95 1535.28 2203.81 1538.68 2202.68 1542.07 2201.51 1545.57 2199.24 1545.57 2196.96 1545.57 2194.62 1545.57 2194.62 1547.84 2194.62 1550.1 2194.62 1552.43 2191.22 1552.43 2187.81 1552.43 2184.3 1552.43 2183.16 1555.83 2182.03 1559.22 2180.86 1562.72 2173.96 1566.61 2173.96 1566.61 2165.16 1570.01 2162.32 1571.15 2159.47 1572.29 2156.54 1573.47 2106.93 1588.09 2042.47 1586.48 1995.04 1566.15 1995.04 1563.89 1995.04 1561.63 1995.04 1559.29 1992.27 1558.13 1992.27 1558.13 1989.44 1556.94 1961.78 1541.69 1953.11 1523.1 1943.42 1494.12 1943.09 1484.87 1942.94 1475.72 1942.99 1466.47 1942.97 1463.95 1942.96 1461.44 1942.95 1458.85 1942.98 1440.11 1942.98 1440.11 1946.86 1432.38 1924.72 1434.08 1924.72 1434.08 1902.12 1435.81 1903.26 1431.28 1904.4 1426.76 1905.57 1422.09 1914.89 1418.19 1914.89 1418.19 1926.21 1415.23 1951.03 1407.3 1975.09 1398.52 1999.08 1388.37 2029.31 1375.9 2056.04 1369.48 2089.02 1371.5Z" fill="#E43E4B" fill-rule="evenodd"/></g></svg>